<svg xmlns="http://www.w3.org/2000/svg" x="0px" y="0px"
width="144" height="144"
viewBox="0 0 50 50"
style=" fill:#000000;"><path d="M 9 4 C 6.2504839 4 4 6.2504839 4 9 L 4 41 C 4 43.749516 6.2504839 46 9 46 L 41 46 C 43.749516 46 46 43.749516 46 41 L 46 9 C 46 6.2504839 43.749516 4 41 4 L 9 4 z M 9 6 L 41 6 C 42.668484 6 44 7.3315161 44 9 L 44 41 C 44 42.668484 42.668484 44 41 44 L 9 44 C 7.3315161 44 6 42.668484 6 41 L 6 9 C 6 7.3315161 7.3315161 6 9 6 z M 23.841797 10 C 20.597797 10.035 17.423141 12.023078 16.119141 14.955078 C 15.330141 16.519078 15 18.27 15 20 C 15 24 16.095312 26.963531 17.695312 28.394531 C 19.350313 30.104531 22 31 24 31 C 26 31 29.144 29.955 30 28 C 30 32 29 35 24 35 C 22 35 20.694563 33.572922 20.476562 33.044922 C 18.999562 32.999922 15.893 32.97 15 33 C 15.496 35.82 17.771391 38.293766 20.525391 39.259766 C 24.268391 40.585766 28.79575 40.165656 31.96875 37.722656 C 33.89375 36.246656 35.034047 33.873 34.998047 31.5 L 34.998047 11 C 33.180047 10.965 31.818 11 30 11 C 30 11.838 29.964 12.162 30 13 C 29.109 11.115 26.585422 10.07 24.482422 10 L 23.841797 10 z M 25.517578 15 C 27.091578 15 28.666391 15.807063 29.275391 17.164062 C 30.134391 19.167063 30.276125 21.463047 29.453125 23.498047 C 28.737125 24.855047 27.307531 26.148328 25.519531 25.986328 C 23.229531 26.148328 21.583453 24.144734 21.189453 22.302734 C 20.867453 20.589734 20.903563 18.714609 21.726562 17.099609 C 22.404563 15.710609 23.907578 15.032 25.517578 15 z"></path></svg>